<svg version="1.1" xmlns="http://www.w3.org/2000/svg" xmlns:xlink="http://www.w3.org/1999/xlink" width="58.5291" height="64.54924" viewBox="0,0,58.5291,64.54924"><g transform="translate(-201.60491,-143.31875)"><g data-paper-data="{&quot;isPaintingLayer&quot;:true}" fill-rule="evenodd" stroke="none" stroke-width="1" stroke-linecap="butt" stroke-linejoin="miter" stroke-miterlimit="10" stroke-dasharray="" stroke-dashoffset="0" style="mix-blend-mode: normal"><g><path d="M247.2557,157.0471c0.6002,2.0577 -0.6001,6.0016 -4.2011,7.9736c-7.202,4.0297 -12.9464,7.3734 -16.8903,15.4327c-3.0866,6.4304 -1.2861,13.9753 -2.2292,21.2629c-1.2003,8.9167 -8.3165,6.7733 -12.8606,2.1435c-11.4031,-11.5746 -11.0601,-24.3495 -6.5161,-35.1524c5.573,-13.2893 27.1788,-27.7789 39.868,-17.4047c1.8005,-1.3718 12.6034,-8.9167 14.1467,-7.8879c4.0296,2.8294 0.2572,14.3182 -11.3174,13.6323z" fill="#272525"/><path d="M257.3727,146.4157c0.4287,1.8862 -0.1714,4.887 -1.8862,6.1731c-1.5433,1.1145 -6.7732,3.258 -9.7741,3.5152c1.0289,3.9439 -13.8894,10.5457 -19.6338,18.0906c-7.8879,10.46 -2.8294,20.2341 -5.4872,28.1219c-1.4576,4.2869 -5.1443,1.972 -6.0017,0.9431c-13.0321,-14.4039 -10.0313,-27.436 -7.0304,-34.2092c3.9439,-8.9167 14.0609,-14.2325 23.0633,-17.319c1.8005,-0.6002 5.6587,-1.3718 7.5449,-1.2003c3.0009,0.2572 3.5153,0.6001 5.573,2.4863c0.4287,0.343 13.2893,-8.2308 13.6322,-6.6017z" fill="#fff63b"/><path d="M241.6828,155.5038c0.6001,-0.2572 0.9431,0.5145 0.5144,0.6859c-16.976,7.8879 -28.2076,20.4056 -26.9216,34.7237c0.2572,3.0008 1.8863,7.8879 2.4007,9.0025c0.5144,1.1145 -0.7717,0.9431 -1.1146,-0.0858c-0.4287,-1.0288 -0.7716,-1.8005 -1.2003,-3.3437c-4.1154,-13.1179 -4.0297,-27.1788 26.3214,-40.9826z" fill="#272525"/></g></g></g></svg>